REM DIRINDEX 1\2,1\3,1\4,1\5
REM DIRNAME cjc046,folder01,folder02,folder03,folder04
TITLE ""
FILE "170.mp3" MP3
  TRACK 01 AUDIO
    TITLE "0:"
    INDEX 01 00:00:00
  TRACK 02 AUDIO
    TITLE "2:cjc046_5119"
    INDEX 01 00:00:13
  TRACK 03 AUDIO
    TITLE "0:"
    INDEX 01 00:01:26
  TRACK 04 AUDIO
    TITLE "3:cjc046_5120"
    INDEX 01 00:01:44
  TRACK 05 AUDIO
    TITLE "0:"
    INDEX 01 00:02:57
  TRACK 06 AUDIO
    TITLE "4:cjc046_5121"
    INDEX 01 00:03:04
  TRACK 07 AUDIO
    TITLE "0:"
    INDEX 01 00:04:15
  TRACK 08 AUDIO
    TITLE "2:cjc046_5122"
    INDEX 01 00:05:24
  TRACK 09 AUDIO
    TITLE "0:"
    INDEX 01 00:06:37
  TRACK 10 AUDIO
    TITLE "3:cjc046_5123"
    INDEX 01 00:06:57
  TRACK 11 AUDIO
    TITLE "0:"
    INDEX 01 00:07:62
  TRACK 12 AUDIO
    TITLE "4:cjc046_5124"
    INDEX 01 00:08:05
  TRACK 13 AUDIO
    TITLE "0:"
    INDEX 01 00:09:14
  TRACK 14 AUDIO
    TITLE "2:cjc046_5125"
    INDEX 01 00:10:23
  TRACK 15 AUDIO
    TITLE "0:"
    INDEX 01 00:11:33
  TRACK 16 AUDIO
    TITLE "3:cjc046_5126"
    INDEX 01 00:11:50
  TRACK 17 AUDIO
    TITLE "0:"
    INDEX 01 00:13:63
  TRACK 18 AUDIO
    TITLE "4:cjc046_5127"
    INDEX 01 00:14:02
  TRACK 19 AUDIO
    TITLE "0:"
    INDEX 01 00:15:11
  TRACK 20 AUDIO
    TITLE "2:cjc046_5128"
    INDEX 01 00:16:16
  TRACK 21 AUDIO
    TITLE "0:"
    INDEX 01 00:17:37
  TRACK 22 AUDIO
    TITLE "3:cjc046_5129"
    INDEX 01 00:17:53
  TRACK 23 AUDIO
    TITLE "0:"
    INDEX 01 00:18:72
  TRACK 24 AUDIO
    TITLE "4:cjc046_5130"
    INDEX 01 00:19:15
  TRACK 25 AUDIO
    TITLE "0:"
    INDEX 01 00:20:36
  TRACK 26 AUDIO
    TITLE "2:cjc046_5131"
    INDEX 01 00:21:43
  TRACK 27 AUDIO
    TITLE "0:"
    INDEX 01 00:22:62
  TRACK 28 AUDIO
    TITLE "3:cjc046_5132"
    INDEX 01 00:23:08
  TRACK 29 AUDIO
    TITLE "0:"
    INDEX 01 00:24:00
  TRACK 30 AUDIO
    TITLE "4:cjc046_5133"
    INDEX 01 00:24:22
  TRACK 31 AUDIO
    TITLE "0:"
    INDEX 01 00:25:41
  TRACK 32 AUDIO
    TITLE "2:cjc046_5134"
    INDEX 01 00:26:48
  TRACK 33 AUDIO
    TITLE "0:"
    INDEX 01 00:27:57
  TRACK 34 AUDIO
    TITLE "3:cjc046_5135"
    INDEX 01 00:27:71
  TRACK 35 AUDIO
    TITLE "0:"
    INDEX 01 00:29:15
  TRACK 36 AUDIO
    TITLE "4:cjc046_5136"
    INDEX 01 00:29:33
  TRACK 37 AUDIO
    TITLE "0:"
    INDEX 01 00:30:42
  TRACK 38 AUDIO
    TITLE "2:cjc046_5137"
    INDEX 01 00:31:45
  TRACK 39 AUDIO
    TITLE "0:"
    INDEX 01 00:32:60
  TRACK 40 AUDIO
    TITLE "3:cjc046_5138"
    INDEX 01 00:33:03
  TRACK 41 AUDIO
    TITLE "0:"
    INDEX 01 00:34:06
  TRACK 42 AUDIO
    TITLE "4:cjc046_5139"
    INDEX 01 00:34:20
  TRACK 43 AUDIO
    TITLE "0:"
    INDEX 01 00:35:33
  TRACK 44 AUDIO
    TITLE "2:cjc046_5140"
    INDEX 01 00:36:44
  TRACK 45 AUDIO
    TITLE "0:"
    INDEX 01 00:37:65
  TRACK 46 AUDIO
    TITLE "3:cjc046_5141"
    INDEX 01 00:38:10
  TRACK 47 AUDIO
    TITLE "0:"
    INDEX 01 00:39:27
  TRACK 48 AUDIO
    TITLE "4:cjc046_5142"
    INDEX 01 00:39:47
  TRACK 49 AUDIO
    TITLE "0:"
    INDEX 01 00:40:66
  TRACK 50 AUDIO
    TITLE "2:cjc046_5143"
    INDEX 01 00:42:02
  TRACK 51 AUDIO
    TITLE "0:"
    INDEX 01 00:42:74
  TRACK 52 AUDIO
    TITLE "3:cjc046_5144"
    INDEX 01 00:43:13
  TRACK 53 AUDIO
    TITLE "0:"
    INDEX 01 00:44:30
  TRACK 54 AUDIO
    TITLE "4:cjc046_5145"
    INDEX 01 00:44:46
  TRACK 55 AUDIO
    TITLE "0:"
    INDEX 01 00:45:45
  TRACK 56 AUDIO
    TITLE "2:cjc046_5146"
    INDEX 01 00:46:51
  TRACK 57 AUDIO
    TITLE "0:"
    INDEX 01 00:47:66
  TRACK 58 AUDIO
    TITLE "3:cjc046_5147"
    INDEX 01 00:48:06
  TRACK 59 AUDIO
    TITLE "0:"
    INDEX 01 00:49:25
  TRACK 60 AUDIO
    TITLE "4:cjc046_5148"
    INDEX 01 00:49:43
  TRACK 61 AUDIO
    TITLE "0:"
    INDEX 01 00:50:60
  TRACK 62 AUDIO
    TITLE "2:cjc046_5149"
    INDEX 01 00:51:67
  TRACK 63 AUDIO
    TITLE "0:"
    INDEX 01 00:53:08
  TRACK 64 AUDIO
    TITLE "3:cjc046_5150"
    INDEX 01 00:53:23
  TRACK 65 AUDIO
    TITLE "0:"
    INDEX 01 00:54:36
  TRACK 66 AUDIO
    TITLE "4:cjc046_5151"
    INDEX 01 00:54:52
  TRACK 67 AUDIO
    TITLE "0:"
    INDEX 01 00:55:67
  TRACK 68 AUDIO
    TITLE "2:cjc046_5152"
    INDEX 01 00:56:65
  TRACK 69 AUDIO
    TITLE "0:"
    INDEX 01 00:57:66
  TRACK 70 AUDIO
    TITLE "3:cjc046_5153"
    INDEX 01 00:58:15
  TRACK 71 AUDIO
    TITLE "0:"
    INDEX 01 00:59:30
  TRACK 72 AUDIO
    TITLE "4:cjc046_5154"
    INDEX 01 00:59:34
  TRACK 73 AUDIO
    TITLE "0:"
    INDEX 01 01:00:35
  TRACK 74 AUDIO
    TITLE "2:cjc046_5155"
    INDEX 01 01:01:46
  TRACK 75 AUDIO
    TITLE "0:"
    INDEX 01 01:02:63
  TRACK 76 AUDIO
    TITLE "3:cjc046_5156"
    INDEX 01 01:03:06
  TRACK 77 AUDIO
    TITLE "0:"
    INDEX 01 01:04:41
  TRACK 78 AUDIO
    TITLE "4:cjc046_5157"
    INDEX 01 01:04:54
  TRACK 79 AUDIO
    TITLE "0:"
    INDEX 01 01:05:71
  TRACK 80 AUDIO
    TITLE "2:cjc046_5158"
    INDEX 01 01:07:06
  TRACK 81 AUDIO
    TITLE "0:"
    INDEX 01 01:08:21
  TRACK 82 AUDIO
    TITLE "3:cjc046_5159"
    INDEX 01 01:08:40
  TRACK 83 AUDIO
    TITLE "0:"
    INDEX 01 01:09:59
  TRACK 84 AUDIO
    TITLE "4:cjc046_5160"
    INDEX 01 01:10:04
  TRACK 85 AUDIO
    TITLE "0:"
    INDEX 01 01:11:19
  TRACK 86 AUDIO
    TITLE "2:cjc046_5161"
    INDEX 01 01:12:26
  TRACK 87 AUDIO
    TITLE "0:"
    INDEX 01 01:13:36
  TRACK 88 AUDIO
    TITLE "3:cjc046_5162"
    INDEX 01 01:13:51
  TRACK 89 AUDIO
    TITLE "0:"
    INDEX 01 01:14:51
  TRACK 90 AUDIO
    TITLE "4:cjc046_5163"
    INDEX 01 01:14:70
  TRACK 91 AUDIO
    TITLE "0:"
    INDEX 01 01:16:05
  TRACK 92 AUDIO
    TITLE "2:cjc046_5164"
    INDEX 01 01:17:14
  TRACK 93 AUDIO
    TITLE "0:"
    INDEX 01 01:18:45
  TRACK 94 AUDIO
    TITLE "3:cjc046_5165"
    INDEX 01 01:18:58
  TRACK 95 AUDIO
    TITLE "0:"
    INDEX 01 01:20:30
  TRACK 96 AUDIO
    TITLE "4:cjc046_5166"
    INDEX 01 01:20:49
  TRACK 97 AUDIO
    TITLE "0:"
    INDEX 01 01:22:03
